<svg width="224" height="245" viewBox="0 0 224 245" fill="none" xmlns="http://www.w3.org/2000/svg">
<path fill-rule="evenodd" clip-rule="evenodd" d="M55.7417 46.8023H46.6486V35.3568H54.89V21.7512H46.6486V13.6075H56.5057V0H1.3081V13.6075H8.41723V60.4098H25.8617V13.6075H29.609V60.4098H57.0707V46.8023H55.7417" fill="#FFF200"/>
<path fill-rule="evenodd" clip-rule="evenodd" d="M82.0904 46.8023H72.9966V35.3568H81.238V21.7512H72.9966V13.6075H82.8536V0H55.9569V60.4097H83.4194V46.8022H82.0904" fill="#FFF200"/>
<path fill-rule="evenodd" clip-rule="evenodd" d="M151.362 58.9066L143.526 1.1481L143.37 0.000701904H121.165L121.015 1.1538L116.636 34.4491V0.000701904H100.485V18.6132L95.3352 0.956554L95.056 0.000701904H82.3071V60.4104H98.4579V43.721L102.877 59.4432L103.149 60.4104H129.947L130.042 59.1872L130.755 49.9397H133.957L134.744 59.1966L134.847 60.4104H151.566L151.362 58.9065" fill="#FFF200"/>
<path fill-rule="evenodd" clip-rule="evenodd" d="M185.083 8.5184L176.761 0.380463L176.374 0.00115967H159.358L158.969 0.393752L150.889 8.52979L150.505 8.91669V51.6169L150.94 52.0114L159.826 60.0659L160.208 60.411H176.877L177.267 60.009L185.106 51.9525L185.48 51.5676V27.8744H167.545V13.6088H168.44V24.8059H185.48V8.90729L185.083 8.5185L185.083 8.5184ZM167.912 41.4799H168.44V46.8034H167.545V41.4799H167.912Z" fill="#FFF200"/>
<path fill-rule="evenodd" clip-rule="evenodd" d="M211.406 46.8023H202.314V35.3568H210.554V21.7512H202.314V13.6075H212.172V0H185.272V60.4097H212.734V46.8022H211.406" fill="#FFF200"/>
<path fill-rule="evenodd" clip-rule="evenodd" d="M51.215 61.3933H34.2392L34.0654 62.5179L30.4919 85.5834L26.9175 62.5179L26.7431 61.3933H8.439V121.804H24.6159L24.5891 120.454L24.3086 105.681L26.6324 120.681L26.8069 121.804H34.1768L34.3505 120.681L36.6744 105.681L36.3938 120.454L36.3678 121.804H52.5443V61.3933H51.2151" fill="#FFF200"/>
<path fill-rule="evenodd" clip-rule="evenodd" d="M114.143 61.3933H69.726V108.198H69.6384V61.3933H52.1941V112.992L52.6069 113.383L61.0889 121.438L61.475 121.804H77.8895L78.2742 121.438L86.7578 113.383L87.1704 112.992V75.0009H91.3224V121.804H108.766V75.0009H115.472V61.3934H114.143" fill="#FFF200"/>
<path fill-rule="evenodd" clip-rule="evenodd" d="M206.704 61.3933H163.578V80.0001L158.429 62.3492L158.15 61.3933H145.402V95.2063L140.969 62.5406L140.813 61.3932H118.611L118.459 62.5482L110.863 120.307L110.667 121.804H127.39L127.483 120.579L128.198 111.332H131.401L132.186 120.59L132.291 121.804H161.552V105.112L165.973 120.836L166.245 121.804H179.731V75.0007H183.882V121.804H201.327V75.0007H208.033V61.3932H206.704" fill="#FFF200"/>
<path fill-rule="evenodd" clip-rule="evenodd" d="M66.0802 122.786H51.2591V141.398L46.1085 123.743L45.8293 122.786H33.0803V183.197H49.2314V166.507L53.6506 182.229L53.9231 183.197H67.4094V122.786H66.0802" fill="#FFF200"/>
<path fill-rule="evenodd" clip-rule="evenodd" d="M84.5295 122.786H68.4149V183.197H85.8585V122.786H84.5295" fill="#FFF200"/>
<path fill-rule="evenodd" clip-rule="evenodd" d="M119.251 122.786H104.427V141.398L99.2776 123.743L98.9992 122.786H86.2495V183.197H102.4V166.507L106.82 182.229L107.093 183.197H120.579V122.786H119.251" fill="#FFF200"/>
<path fill-rule="evenodd" clip-rule="evenodd" d="M152.016 122.786H135.9V169.59H135.732V157.748H120.388V174.398L120.819 174.792L129.625 182.848L130.008 183.197H143.727L144.107 182.848L152.913 174.792L153.345 174.398V122.786H152.016" fill="#FFF200"/>
<path fill-rule="evenodd" clip-rule="evenodd" d="M188.694 181.693L180.857 123.935L180.702 122.786H158.499L158.347 123.94L150.754 181.699L150.556 183.196H167.281L167.374 181.973L168.086 172.725H171.289L172.074 181.982L172.179 183.196H188.898L188.694 181.693" fill="#FFF200"/>
<path fill-rule="evenodd" clip-rule="evenodd" d="M62.2453 184.177H46.1304V230.982H46.0429V184.177H29.9306H1.32972H0V197.784H7.10988V244.588H24.5543V197.784H28.5985V235.775L29.0114 236.167L37.4949 244.223L37.8794 244.588H54.2941L54.6794 244.223L63.1622 236.167L63.575 235.775V184.177H62.2452" fill="#FFF200"/>
<path fill-rule="evenodd" clip-rule="evenodd" d="M124.078 184.177H94.1472V189.876L88.6491 184.552L88.2624 184.177H63.5291V244.588H80.5695V221.389H80.8189V244.588H97.4557V219.47L97.0131 219.075L91.9139 214.518L96.9983 210.107L97.4557 209.71V197.785H101.258V244.588H118.703V197.785H125.407V184.177H124.079L124.078 184.177ZM80.819 197.784V207.78H80.5696V197.784H80.819Z" fill="#FFF200"/>
<path fill-rule="evenodd" clip-rule="evenodd" d="M151.821 230.983H142.728V184.178H125.283V244.59H153.15V230.983H151.821" fill="#FFF200"/>
<path fill-rule="evenodd" clip-rule="evenodd" d="M180.223 230.983H171.13V219.536H179.371V205.93H171.13V197.786H180.987V184.178H154.09V244.59H181.553V230.983H180.223" fill="#FFF200"/>
<path fill-rule="evenodd" clip-rule="evenodd" d="M216.644 216.017L207.595 207.88L207.268 207.586L206.827 207.544L199.389 206.853V197.785H199.636V205.599H216.273V193.086L215.88 192.698L207.638 184.562L207.251 184.177H191.201L190.811 184.572L182.733 192.708L182.347 193.094V212.201L182.798 212.597L191.927 220.653L192.254 220.942L192.689 220.98L199.636 221.597V230.982H199.389V223.167H181.942V235.775L182.357 236.167L190.84 244.223L191.225 244.589H207.885L208.271 244.217L216.674 236.162L217.083 235.771V216.413L216.644 216.017" fill="#FFF200"/>
<path fill-rule="evenodd" clip-rule="evenodd" d="M45.3197 48.1283V34.0315H53.5603V23.0772H45.3197V12.2822H55.1759V1.32608H2.63787V12.2822H9.74701V59.0845H24.532V12.2822H30.9381V59.0845H55.7418V48.1283H45.3197" fill="#3F6A31"/>
<path fill-rule="evenodd" clip-rule="evenodd" d="M81.5248 12.2826H71.6678V23.0776H79.9084V34.0319H71.6678V48.1287H82.0907V59.0849H57.2861V1.32635H81.5249V12.2825" fill="#3F6A31"/>
<path fill-rule="evenodd" clip-rule="evenodd" d="M142.208 1.32683H122.332L115.307 54.7593V1.32683H101.814V25.9758H101.249L94.0581 1.32683H83.636V59.0853H97.1282V35.8055H97.6131L104.157 59.0853H128.715L129.523 48.6128H135.178L136.067 59.0853H150.045L142.208 1.32683ZM130.251 37.6583L131.705 15.1826H132.593L134.37 37.6583H130.251Z" fill="#3F6A31"/>
<path fill-rule="evenodd" clip-rule="evenodd" d="M184.151 23.4797H169.77V12.2826H166.213V48.1286H169.77V40.1538H167.911V29.1995H184.151V51.0304L176.314 59.0849H160.72L151.833 51.0304V9.46249L159.913 1.32645H175.829L184.151 9.46249V23.4797" fill="#3F6A31"/>
<path fill-rule="evenodd" clip-rule="evenodd" d="M210.841 12.2826H200.984V23.0776H209.226V34.0319H200.984V48.1287H211.406V59.0849H186.603V1.32635H210.842V12.2825" fill="#3F6A31"/>
<path fill-rule="evenodd" clip-rule="evenodd" d="M51.215 62.7179V120.476H37.7228L38.2879 90.7522H37.6419L33.0364 120.476H27.9466L23.3411 90.7522H22.6953L23.2609 120.476H9.76798V62.7179H25.6034L30.0471 91.397H30.9359L35.3796 62.7179H51.215Z" fill="#3F6A31"/>
<path fill-rule="evenodd" clip-rule="evenodd" d="M85.8418 62.7179H71.0569V109.522H68.3098V62.7179H53.5249V112.422L62.0077 120.476H77.3582L85.8417 112.422V73.674H92.6524V120.476H107.437V73.674H114.144V62.7178H85.8417" fill="#3F6A31"/>
<path fill-rule="evenodd" clip-rule="evenodd" d="M178.4 62.7179H164.908V87.3688H164.344L157.151 62.7179H146.73V114.893L139.651 62.7179H119.776L112.181 120.476H126.158L126.966 110.004H132.623L133.51 120.476H160.221V97.1965H160.708L167.252 120.476H178.4V73.674H185.212V120.476H199.996V73.674H206.704V62.7178H178.4L178.4 62.7179ZM127.694 99.0494L129.148 76.5737H130.036L131.813 99.0494H127.694Z" fill="#3F6A31"/>
<path fill-rule="evenodd" clip-rule="evenodd" d="M66.0802 181.869H54.9305L48.3873 158.589H47.9016V181.869H34.4093V124.111H44.8314L52.0224 148.762H52.5881V124.111H66.0802V181.869" fill="#3F6A31"/>
<path fill-rule="evenodd" clip-rule="evenodd" d="M69.7448 181.869H84.5304V124.111H69.7448V181.869Z" fill="#3F6A31"/>
<path fill-rule="evenodd" clip-rule="evenodd" d="M119.251 181.869H108.1L101.556 158.589H101.071V181.869H87.5792V124.111H98.0013L105.191 148.762H105.757V124.111H119.251V181.869" fill="#3F6A31"/>
<path fill-rule="evenodd" clip-rule="evenodd" d="M152.016 173.814L143.208 181.87H130.525L121.717 173.814V159.073H134.402V170.915H137.23V124.112H152.016V173.815" fill="#3F6A31"/>
<path fill-rule="evenodd" clip-rule="evenodd" d="M187.377 181.869H173.401L172.512 171.398H166.855L166.047 181.869H152.071L159.667 124.111H179.541L187.377 181.869V181.869ZM169.927 137.967H169.037L167.583 160.442H171.702L169.927 137.967Z" fill="#3F6A31"/>
<path fill-rule="evenodd" clip-rule="evenodd" d="M47.4607 185.504V232.308H44.7133V185.504H1.32982V196.459H8.43988V243.262H23.2255V196.459H29.9284V235.207L38.4112 243.262H53.7618L62.2453 235.207V185.505H47.4605" fill="#3F6A31"/>
<path fill-rule="evenodd" clip-rule="evenodd" d="M95.4777 185.504V193.012L87.724 185.504H64.8596V243.262H79.2406V220.063H82.1496V243.262H96.1266V220.063L89.9061 214.504L96.1266 209.107V196.459H102.587V243.262H117.373V196.459H124.079V185.504H95.4777V185.504ZM82.1496 209.106H79.2405V196.459H82.1496V209.106Z" fill="#3F6A31"/>
<path fill-rule="evenodd" clip-rule="evenodd" d="M141.398 232.308H151.821V243.262H126.614V185.504H141.398V232.307" fill="#3F6A31"/>
<path fill-rule="evenodd" clip-rule="evenodd" d="M179.657 196.459H169.8V207.255H178.04V218.21H169.8V232.307H180.222V243.262H155.419V185.504H179.657V196.459" fill="#3F6A31"/>
<path fill-rule="evenodd" clip-rule="evenodd" d="M214.946 204.274H200.968V196.459H198.059V208.06L206.704 208.866L215.753 217.002V235.207L207.35 243.262H191.758L183.274 235.207V224.493H198.059V232.308H200.967V220.385L192.808 219.66L183.678 211.604V193.64L191.758 185.504H206.704L214.945 193.64V204.274" fill="#3F6A31"/>
<path fill-rule="evenodd" clip-rule="evenodd" d="M222.546 243.556C221.85 244.252 221.01 244.597 220.028 244.597C219.043 244.597 218.205 244.252 217.515 243.556C216.827 242.866 216.483 242.028 216.483 241.046C216.483 240.072 216.831 239.239 217.523 238.549C218.214 237.861 219.049 237.518 220.028 237.518C221.01 237.518 221.85 237.861 222.546 238.549C223.238 239.235 223.584 240.07 223.584 241.046C223.584 242.025 223.238 242.863 222.546 243.556ZM217.861 238.896C217.264 239.49 216.967 240.21 216.967 241.05C216.967 241.898 217.264 242.621 217.857 243.219C218.454 243.818 219.178 244.115 220.032 244.115C220.883 244.115 221.609 243.818 222.206 243.219C222.803 242.621 223.101 241.898 223.101 241.05C223.101 240.21 222.803 239.49 222.206 238.896C221.605 238.299 220.883 237.999 220.032 237.999C219.186 237.999 218.461 238.299 217.861 238.896ZM219.959 239.099C220.444 239.099 220.799 239.145 221.026 239.238C221.429 239.407 221.63 239.734 221.63 240.222C221.63 240.568 221.503 240.824 221.246 240.988C221.109 241.074 220.921 241.136 220.678 241.175C220.98 241.223 221.202 241.35 221.343 241.554C221.484 241.76 221.554 241.961 221.554 242.155V242.439C221.554 242.529 221.555 242.625 221.563 242.727C221.571 242.829 221.582 242.897 221.603 242.929L221.63 242.977H220.968C220.965 242.965 220.962 242.951 220.958 242.939C220.956 242.925 220.952 242.911 220.95 242.895L220.933 242.771V242.465C220.933 242.017 220.811 241.721 220.568 241.577C220.423 241.494 220.171 241.453 219.808 241.453H219.27V242.977H218.593V239.099H219.96L219.959 239.099ZM220.693 239.725C220.518 239.63 220.241 239.582 219.859 239.582H219.269V240.971H219.893C220.185 240.971 220.404 240.943 220.55 240.886C220.818 240.781 220.953 240.58 220.953 240.286C220.953 240.007 220.868 239.82 220.693 239.725" fill="#FFF200"/>
</svg>
