<?xml version="1.0" encoding="UTF-8" standalone="no"?>
<svg xmlns:rdf="http://www.w3.org/1999/02/22-rdf-syntax-ns#" xmlns="http://www.w3.org/2000/svg" height="192.458" width="174.275" version="1.1" xmlns:cc="http://creativecommons.org/ns#" xmlns:dc="http://purl.org/dc/elements/1.1/">
 <g fill-rule="evenodd" transform="translate(-266.781 -405.724)">
  <path d="m267.139 598.182h174.275v-192.458h-174.275v192.458z" fill="#231f20"/>
  <g transform="translate(2.1325)">
   <g fill="#fff200">
    <path d="m317.063 452.193h-5.98001v-7.54375h5.41988v-8.9675h-5.41988v-5.3675h6.48238v-8.96875h-36.3002v8.96875h4.67525v30.8475h11.4722v-30.8475h2.46437v30.8475h18.06v-8.96875h-0.87399"/>
    <path d="m334.391 452.193h-5.9805v-7.54375h5.41987v-8.9675h-5.41987v-5.3675h6.48237v-8.96875h-17.6884v39.8162h18.0605v-8.96875h-0.874"/>
    <path d="m379.947 460.171-5.15375-38.0688-0.1025-0.75625h-14.6025l-0.0987 0.76-2.88 21.945v-22.705h-10.6216v12.2675l-3.38663-11.6375-0.18363-0.63h-8.38425v39.8162h10.6215v-11l2.90625 10.3625 0.17874 0.6375h17.6234l0.0625-0.80625 0.46875-6.095h2.10625l0.5175 6.10125 0.0675 0.8h10.995l-0.13375-0.99125"/>
    <path d="m402.123 426.96-5.4725-5.36375-0.255-0.25h-11.19l-0.25625 0.25875-5.31375 5.3625-0.2525 0.255v28.1438l0.28625 0.26 5.84375 5.30875 0.25125 0.2275h10.9625l0.25625-0.265 5.155-5.31 0.24625-0.25375v-15.6162h-11.795v-9.4025h0.58875v7.38h11.2062v-10.4788l-0.26125-0.25625zm-11.2925 21.725h0.3475v3.50875h-0.58875v-3.50875h0.24125"/>
    <path d="m419.434 452.193h-5.97875v-7.54375h5.41875v-8.9675h-5.41875v-5.3675h6.4825v-8.96875h-17.69v39.8162h18.06v-8.96875h-0.87375"/>
    <path d="m314.086 461.81h-11.164l-0.11425 0.74125-2.35012 15.2025-2.35063-15.2025-0.11475-0.74125h-12.0375v39.8169h10.6386l-0.0176-0.89012-0.1845-9.73675 1.52825 9.88662 0.11475 0.74025h4.84675l0.11425-0.74025 1.52825-9.88662-0.1845 9.73675-0.0171 0.89012h10.6383v-39.8169h-0.87413"/>
    <path d="m355.47 461.81h-29.2104v30.8488h-0.0576v-30.8488h-11.4721v34.0088l0.2715 0.25787 5.57813 5.309 0.25387 0.24125h10.7949l0.253-0.24125 5.57912-5.309 0.27138-0.25787v-25.04h2.7305v30.8481h11.4718v-30.8481h4.40975v-8.96875h-0.87375"/>
    <path d="m416.342 461.81h-28.3612v12.2638l-3.38625-11.6338-0.18375-0.63h-8.38375v22.2862l-2.915-21.53-0.1025-0.75625h-14.6012l-0.1 0.76125-4.99512 38.0689-0.12938 0.98675h10.9982l0.0613-0.80712 0.47-6.09475h2.10625l0.51625 6.10162 0.0688 0.80025h19.2438v-11.0019l2.9075 10.3642 0.17875 0.63762h8.86875v-30.8481h2.73v30.8481h11.4725v-30.8481h4.41v-8.96875h-0.87375"/>
    <path d="m323.862 502.274h-9.747v12.2671l-3.38725-11.6362-0.18362-0.63088h-8.38425v39.8169h10.6216v-11.0005l2.90625 10.3629 0.17925 0.63763h8.86913v-39.8169h-0.87413"/>
    <path d="m335.995 502.274h-10.5976v39.8169h11.4716v-39.8169h-0.874"/>
    <path d="m358.829 502.274h-9.74838v12.2671l-3.38662-11.6362-0.18313-0.63088h-8.38474v39.8169h10.6215v-11.0005l2.90675 10.3629 0.17925 0.63763h8.86913v-39.8169h-0.87375"/>
    <path d="m380.377 502.274h-10.5988v30.8486h-0.11v-7.80513h-10.0912v10.9741l0.28375 0.25975 5.79125 5.3095 0.25125 0.23h9.0225l0.25-0.23 5.79125-5.3095 0.28375-0.25975v-34.0176h-0.87375"/>
    <path d="m404.498 541.1-5.15375-38.0684-0.1025-0.75775h-14.6012l-0.1 0.76075-4.99375 38.0694-0.13 0.98675h10.9988l0.0612-0.80663 0.46875-6.09525h2.10625l0.51625 6.10163 0.0688 0.80025h10.995l-0.13375-0.99075"/>
    <path d="m321.34 542.737h-10.5978v30.8491h-0.0576v-30.8491h-10.5961-18.8091-0.8745v8.96875h4.67575v30.8486h11.4722v-30.8486h2.65963v25.0395l0.2715 0.25837 5.57913 5.31 0.25287 0.24075h10.795l0.25337-0.24075 5.57863-5.31 0.2715-0.25837v-34.0082h-0.8745"/>
    <path d="m362.004 542.737h-19.684v3.75637l-3.61575-3.50887-0.25437-0.2475h-16.2656v39.8174h11.2065v-15.291h0.164v15.291h10.941v-16.5556l-0.291-0.26025-3.3535-3.0035 3.34375-2.90763 0.30075-0.26175v-7.85987h2.5005v30.8486h11.4728v-30.8486h4.40875v-8.96875h-0.87375zm-28.4492 8.96875v6.58837h-0.164v-6.58837h0.164"/>
    <path d="m380.249 573.587h-5.98v-30.8491h-11.4725v39.8174h18.3262v-8.96825h-0.87375"/>
    <path d="m398.927 573.587h-5.98v-7.5445h5.42v-8.96825h-5.42v-5.36762h6.4825v-8.96875h-17.6888v39.8174h18.0612v-8.96825h-0.875"/>
    <path d="m422.879 563.723-5.95125-5.36337-0.215-0.19375-0.29-0.0274-4.89125-0.45562v-5.977h0.1625v5.15037h10.9412v-8.24712l-0.25875-0.25575-5.42-5.36288-0.255-0.25337h-10.555l-0.25625 0.26025-5.3125 5.36225-0.25375 0.25487v12.5932l0.29625 0.26125 6.00375 5.30963 0.215 0.19037 0.28625 0.025 4.56875 0.40663v6.18562h-0.1625v-5.15087h-11.4738v8.31l0.2725 0.25837 5.57875 5.31 0.25375 0.24075h10.9562l0.25375-0.24462 5.52625-5.30913 0.26875-0.25775v-12.7592l-0.28875-0.26075"/>
   </g>
   <g fill="#3f6a31">
    <path d="m310.209 453.067v-9.29125h5.41938v-7.22h-5.41938v-7.115h6.48188v-7.22125h-34.5512v7.22125h4.67525v30.8475h9.72325v-30.8475h4.21288v30.8475h16.312v-7.22125h-6.854"/>
    <path d="m334.019 429.441h-6.48237v7.115h5.41937v7.22h-5.41937v9.29125h6.8545v7.22125h-16.3125v-38.0688h15.9404v7.22125"/>
    <path d="m373.927 422.22h-13.0712l-4.62 35.2175v-35.2175h-8.87375v16.2462h-0.37163l-4.729-16.2462h-6.85399v38.0688h8.873v-15.3438h0.31887l4.30375 15.3438h16.1502l0.53125-6.9025h3.71875l0.585 6.9025h9.1925l-5.15375-38.0688zm-7.86375 23.9462 0.95625-14.8138h0.58375l1.16875 14.8138h-2.70875"/>
    <path d="m401.51 436.821h-9.4575v-7.38h-2.33875v23.6262h2.33875v-5.25625h-1.2225v-7.22h10.68v14.3888l-5.15375 5.30875h-10.255l-5.845-5.30875v-27.3975l5.31375-5.3625h10.4675l5.4725 5.3625v9.23875"/>
    <path d="m419.063 429.441h-6.4825v7.115h5.42v7.22h-5.42v9.29125h6.85375v7.22125h-16.3112v-38.0688h15.94v7.22125"/>
    <path d="m314.086 462.683v38.0686h-8.873l0.37162-19.5911h-0.42487l-3.02875 19.5911h-3.34725l-3.02875-19.5911h-0.42475l0.372 19.5911h-8.8735v-38.0686h10.414l2.92237 18.9025h0.5845l2.92238-18.9025h10.414"/>
    <path d="m336.858 462.683h-9.72313v30.8488h-1.80662v-30.8488h-9.72313v32.76l5.57863 5.30862h10.0951l5.57913-5.30862v-25.5388h4.479v30.8474h9.72312v-30.8474h4.41063v-7.22125h-18.6128"/>
    <path d="m397.728 462.683h-8.8725v16.2475h-0.37125l-4.73-16.2475h-6.85375v34.3885l-4.655-34.3885h-13.0712l-4.99463 38.0686h9.19213l0.53125-6.90237h3.72l0.58375 6.90237h17.5662v-15.3436h0.32l4.30375 15.3436h7.33125v-30.8474h4.48v30.8474h9.7225v-30.8474h4.41125v-7.22125h-18.6138zm-33.3462 23.9462 0.95625-14.8138h0.58375l1.16875 14.8138h-2.70875"/>
    <path d="m323.862 541.216h-7.3325l-4.30312-15.3438h-0.31937v15.3438h-8.87313v-38.0684h6.854l4.72912 16.2471h0.37201v-16.2471h8.87299v38.0684"/>
    <path d="m326.272 541.216h9.72364v-38.0684h-9.72364v38.0684z"/>
    <path d="m358.829 541.216h-7.33275l-4.30375-15.3438h-0.31888v15.3438h-8.873v-38.0684h6.854l4.7285 16.2471h0.37213v-16.2471h8.87375v38.0684"/>
    <path d="m380.377 535.907-5.7925 5.30963h-8.34125l-5.7925-5.30963v-9.71625h8.3425v7.80513h1.86v-30.8476h9.72375v32.7588"/>
    <path d="m403.632 541.216h-9.19125l-0.585-6.90138h-3.72l-0.53125 6.90138h-9.19125l4.995-38.0684h13.07l5.15375 38.0684zm-11.4762-28.936h-0.585l-0.95625 14.813h2.70875l-1.1675-14.813"/>
    <path d="m311.617 543.612v30.8481h-1.80675v-30.8481h-28.5308v7.22025h4.67588v30.8481h9.72363v-30.8481h4.40812v25.539l5.57862 5.30912h10.0952l5.57913-5.30912v-32.7592h-9.72313"/>
    <path d="m343.195 543.612v4.94825l-5.09913-4.94825h-15.0366v38.0684h9.4575v-15.2905h1.91312v15.2905h9.19188v-15.2905l-4.09088-3.66412 4.09088-3.55763v-8.33587h4.2485v30.8481h9.72425v-30.8481h4.41v-7.22025h-18.8095zm-8.76513 15.5561h-1.91312v-8.33587h1.91312v8.33587"/>
    <path d="m373.394 574.46h6.855v7.22025h-16.5775v-38.0684h9.7225v30.8481"/>
    <path d="m398.555 550.832h-6.4825v7.11562h5.41875v7.22075h-5.41875v9.2915h6.85375v7.22025h-16.3112v-38.0684h15.94v7.22025"/>
    <path d="m421.762 555.983h-9.1925v-5.15087h-1.9125v7.6465l5.685 0.53075 5.95125 5.36275v11.999l-5.52625 5.30912h-10.2538l-5.58-5.30912v-7.0615h9.72375v5.15037h1.9125v-7.85837l-5.36625-0.4775-6.00375-5.30963v-11.8404l5.31375-5.36225h9.82875l5.42 5.36225v7.00887"/>
   </g>
  </g>
  <path d="m428.893 581.874c-0.4575 0.4585-1.01 0.686-1.65625 0.686-0.6475 0-1.19875-0.2275-1.6525-0.686-0.4525-0.45513-0.67875-1.00688-0.67875-1.65438 0-0.642 0.22875-1.19087 0.68375-1.646 0.455-0.45312 1.00375-0.67962 1.6475-0.67962 0.64625 0 1.19875 0.2265 1.65625 0.67962 0.455 0.45263 0.6825 1.0025 0.6825 1.646 0 0.6455-0.2275 1.19725-0.6825 1.65438zm-3.08125-3.07138c-0.3925 0.39163-0.5875 0.86575-0.5875 1.4195 0 0.55913 0.195 1.03563 0.585 1.42963 0.3925 0.39462 0.86875 0.59037 1.43 0.59037 0.56 0 1.0375-0.19575 1.43-0.59037 0.3925-0.394 0.58875-0.8705 0.58875-1.42963 0-0.55375-0.19625-1.02787-0.58875-1.4195-0.395-0.3935-0.87-0.59125-1.43-0.59125-0.55625 0-1.0325 0.19775-1.4275 0.59125zm1.38 0.13388c0.31875 0 0.5525 0.0303 0.70125 0.0917 0.265 0.11087 0.3975 0.32662 0.3975 0.6485 0 0.228-0.0838 0.39637-0.2525 0.50437-0.09 0.0566-0.21375 0.0981-0.37375 0.1235 0.19875 0.0317 0.345 0.11525 0.4375 0.25 0.0925 0.13575 0.13875 0.26813 0.13875 0.396v0.187c0 0.0596 0.001 0.12263 0.006 0.19 0.005 0.0669 0.0125 0.11175 0.0263 0.13325l0.0175 0.0317h-0.435c-0.002-0.008-0.004-0.0176-0.007-0.0254-0.001-0.009-0.004-0.0181-0.005-0.0289l-0.0113-0.0815v-0.20212c0-0.29538-0.08-0.49025-0.24-0.585-0.095-0.0546-0.26125-0.0815-0.5-0.0815h-0.35375v1.00437h-0.445v-2.55612h0.89875zm0.4825 0.41212c-0.115-0.0625-0.2975-0.0942-0.54875-0.0942h-0.3875v0.9155h0.41c0.1925 0 0.33625-0.0181 0.4325-0.0561 0.17625-0.0689 0.265-0.20125 0.265-0.395 0-0.18413-0.0562-0.30725-0.17125-0.37013" fill="#fff200"/>
 </g>
</svg>
